<!-- <svg width="36" height="36" viewBox="0 0 36 36" fill="none" xmlns="http://www.w3.org/2000/svg">
  <path fill-rule="evenodd" clip-rule="evenodd"
    d="M2.88146 6.03314C6.38837 3.0447 11.9315 3.58464 15 7C18.0685 3.58464 23.6116 3.0447 27.1185 6.03314C30.6254 9.02158 30.9808 14.2129 27.9123 17.6282L16.4877 30.344C15.6931 31.2285 14.3069 31.2285 13.5123 30.344L2.08773 17.6282C-0.98081 14.2129 -0.625447 9.02158 2.88146 6.03314Z"
    fill="#0A0A0A" />
  <path d="M11 17V17.5" stroke="white" stroke-width="3" stroke-linecap="round" stroke-linejoin="round" />
  <path d="M19 17V17.5" stroke="white" stroke-width="3" stroke-linecap="round" stroke-linejoin="round" />
  <path d="M12 23C12 23 12.75 22 15 22C17.25 22 18 23 18 23" stroke="white" stroke-linecap="round"
    stroke-linejoin="round" />
</svg> -->


<?xml version="1.0" encoding="UTF-8"?>
<svg version="1.1" xmlns="http://www.w3.org/2000/svg" width="501" height="222">
<path d="M0 0 C3.49790259 4.21051492 6.53860712 8.65204022 9.578125 13.1953125 C10.10839294 13.98340302 10.63866089 14.77149353 11.18499756 15.58346558 C12.87540201 18.09592623 14.56303005 20.61023221 16.25 23.125 C25.69802888 37.25248505 25.69802888 37.25248505 35.60058594 51.06201172 C37 53 37 53 38 55 C32.26681447 52.44780773 28.83991627 47.81973455 26.015625 42.3203125 C21.77048292 34.53848174 16.62869553 27.28685091 11.6875 19.9375 C10.65006779 18.3888881 9.61295562 16.84006175 8.57617188 15.29101562 C6.05446713 11.52485927 3.52843927 7.76163803 1 4 C-1.0681663 6.62634247 -2.68557906 9.16610447 -4.1015625 12.19140625 C-4.50133301 13.03743408 -4.90110352 13.88346191 -5.31298828 14.75512695 C-5.74595215 15.68156006 -6.17891602 16.60799316 -6.625 17.5625 C-7.59254933 19.60994283 -8.5613908 21.65677533 -9.53125 23.703125 C-10.34142578 25.41338867 -10.34142578 25.41338867 -11.16796875 27.15820312 C-14.7708299 34.73337304 -18.4558367 42.26930263 -22.125 49.8125 C-22.8914725 51.38938792 -23.65791197 52.96629189 -24.42431641 54.54321289 C-29.78573474 65.57146948 -29.78573474 65.57146948 -31 68 C-30.43039551 67.93433838 -29.86079102 67.86867676 -29.27392578 67.80102539 C-22.14724601 67.02879113 -15.03682504 66.69149496 -7.875 66.4375 C-6.15410156 66.37272461 -6.15410156 66.37272461 -4.3984375 66.30664062 C-1.59904857 66.20166354 1.20041215 66.09950535 4 66 C4 66.99 4 67.98 4 69 C3.42145264 68.99476318 2.84290527 68.98952637 2.24682617 68.98413086 C-12.90793895 68.7932647 -12.90793895 68.7932647 -28 70 C-27.566875 70.59425781 -27.13375 71.18851562 -26.6875 71.80078125 C-22.93990487 77.378799 -21.44119997 81.14410409 -21.85546875 87.83984375 C-22.03757146 91.82149483 -21.7790848 95.71547051 -21.5 99.6875 C-21.45190186 100.40760254 -21.40380371 101.12770508 -21.35424805 101.86962891 C-21.23935586 103.57996992 -21.12014914 105.29002024 -21 107 C-18.41073669 107 -17.79948339 106.17346382 -15.875 104.5 C-14.92625 103.675 -13.9775 102.85 -13 102 C-14.47721422 105.45201639 -16.43794001 107.64961936 -19.125 110.25 C-19.84945312 110.95640625 -20.57390625 111.6628125 -21.3203125 112.390625 C-21.87460938 112.92171875 -22.42890625 113.4528125 -23 114 C-24.30041254 111.39917492 -24.19441419 109.37867359 -24.28125 106.46875 C-24.33732422 104.78652344 -24.33732422 104.78652344 -24.39453125 103.0703125 C-24.44673828 101.30300781 -24.44673828 101.30300781 -24.5 99.5 C-24.73887367 91.62601591 -25.08073388 83.82714938 -26 76 C-27.485 76.495 -27.485 76.495 -29 77 C-30.56118428 77.06740865 -32.1250252 77.08514456 -33.6875 77.0625 C-34.49574219 77.05347656 -35.30398437 77.04445313 -36.13671875 77.03515625 C-36.75160156 77.02355469 -37.36648437 77.01195313 -38 77 C-37.67 75.35 -37.34 73.7 -37 72 C-47.81461788 78.82248498 -58.44708545 85.90527979 -69.06396484 93.03027344 C-70.92744868 94.28044703 -72.79220918 95.52872143 -74.65869141 96.77441406 C-76.94393958 98.30094348 -79.22303109 99.83615925 -81.5 101.375 C-82.16990967 101.82069336 -82.83981934 102.26638672 -83.5300293 102.72558594 C-85.05656462 103.76533136 -86.53490898 104.87532719 -88 106 C-88 106.66 -88 107.32 -88 108 C-74.17639923 114.73232995 -60.35069435 121.46262259 -46.375 127.875 C-45.46476074 128.29700684 -44.55452148 128.71901367 -43.61669922 129.15380859 C-42.78154785 129.53359863 -41.94639648 129.91338867 -41.0859375 130.3046875 C-40.0038501 130.7994458 -40.0038501 130.7994458 -38.89990234 131.30419922 C-36.86771326 132.17194649 -36.86771326 132.17194649 -34 132 C-34.33 131.01 -34.66 130.02 -35 129 C-33.68 128.67 -32.36 128.34 -31 128 C-32.65 127.34 -34.3 126.68 -36 126 C-35.04578192 124.85073734 -34.08647955 123.70569459 -33.125 122.5625 C-32.59132812 121.92441406 -32.05765625 121.28632812 -31.5078125 120.62890625 C-30 119 -30 119 -28 118 C-29.3024333 120.90542812 -30.70886268 122.8092961 -33 125 C-15.47014616 130.17213812 -0.12804844 130.8834336 18 129 C17.67 125.37 17.34 121.74 17 118 C19.45823172 121.68734758 20.01242616 124.69699971 21 129 C26.28 128.67 31.56 128.34 37 128 C37.33 128.66 37.66 129.32 38 130 C36.75627039 132.41001086 35.35574987 134.69521124 33.93359375 137.00390625 C31.33980731 145.32789871 37.29713576 155.93257823 40.125 163.875 C41.04966092 166.47469781 41.96798102 169.07651711 42.8828125 171.6796875 C43.28902832 172.82163574 43.69524414 173.96358398 44.11376953 175.14013672 C45 178 45 178 45 181 C30.645 178.525 30.645 178.525 16 176 C12.84345404 182.64055453 12.84345404 182.64055453 9.68823242 189.28173828 C7.50187392 193.87720133 5.30035063 198.46043762 3 203 C-1.66999652 201.47705697 -3.5810522 197.67007924 -6.1328125 193.76171875 C-6.84967728 192.68504692 -6.84967728 192.68504692 -7.58102417 191.58662415 C-8.58883636 190.06887081 -9.59216639 188.548133 -10.59130859 187.0246582 C-12.11676626 184.70004722 -13.65668613 182.3855722 -15.19921875 180.07226562 C-16.17795479 178.59432673 -17.15584756 177.11582899 -18.1328125 175.63671875 C-18.82034103 174.60208748 -18.82034103 174.60208748 -19.52175903 173.54655457 C-21.75905928 170.12381045 -23.66006942 166.8952017 -25 163 C-31.119911 164.79800305 -37.18057342 166.68169907 -43.17578125 168.859375 C-44.06555664 169.18091553 -44.95533203 169.50245605 -45.87207031 169.83374023 C-47.64951098 170.48036089 -49.42370932 171.13597278 -51.19433594 171.80102539 C-52.01836914 172.10000732 -52.84240234 172.39898926 -53.69140625 172.70703125 C-54.42560791 172.9800708 -55.15980957 173.25311035 -55.91625977 173.53442383 C-58.31234234 174.06978756 -59.67028839 173.6592519 -62 173 C-61.75765625 171.74864258 -61.5153125 170.49728516 -61.265625 169.20800781 C-60.36735867 164.5645176 -59.4739614 159.9201017 -58.58203125 155.27539062 C-58.1953389 153.26536897 -57.80732705 151.25560069 -57.41796875 149.24609375 C-56.85850378 146.35742767 -56.30379233 143.46788324 -55.75 140.578125 C-55.57500977 139.68007141 -55.40001953 138.78201782 -55.21972656 137.85675049 C-55.05956055 137.01618103 -54.89939453 136.17561157 -54.734375 135.30957031 C-54.59225586 134.57232727 -54.45013672 133.83508423 -54.30371094 133.07550049 C-53.9034737 130.68995901 -53.9034737 130.68995901 -54 127 C-54.61294922 126.70867187 -55.22589844 126.41734375 -55.85742188 126.1171875 C-68.30020906 120.19825507 -80.70784291 114.22636114 -93 108 C-93 107.34 -93 106.68 -93 106 C-91.10571289 104.6184082 -91.10571289 104.6184082 -88.41015625 102.98828125 C-83.83154422 100.15627872 -79.32777244 97.2486299 -74.87109375 94.23046875 C-74.26399567 93.81950958 -73.65689758 93.40855042 -73.03140259 92.98513794 C-71.79283668 92.14550032 -70.55475045 91.30515468 -69.31713867 90.46411133 C-67.41058529 89.16922009 -65.50127702 87.87846097 -63.59179688 86.58789062 C-62.3722297 85.76066154 -61.15282247 84.93319659 -59.93359375 84.10546875 C-59.3659581 83.7221489 -58.79832245 83.33882904 -58.21348572 82.94389343 C-55.95890185 81.40776934 -53.934446 79.934446 -52 78 C-52.99 78.33 -53.98 78.66 -55 79 C-57.14057321 72.91427923 -59.27632689 66.82688307 -61.40869141 60.73828125 C-62.13511276 58.66594901 -62.86264859 56.59400709 -63.59130859 54.52246094 C-64.63670366 51.54984096 -65.67812106 48.57585376 -66.71875 45.6015625 C-67.04685669 44.67131256 -67.37496338 43.74106262 -67.7130127 42.78262329 C-68.16347961 41.49151138 -68.16347961 41.49151138 -68.62304688 40.17431641 C-68.88952026 39.41486725 -69.15599365 38.65541809 -69.43054199 37.87295532 C-70 36 -70 36 -70 34 C-60.1469796 34.71823865 -50.55828775 36.68691654 -40.875 38.5625 C-39.13809792 38.89558453 -37.40111931 39.2282702 -35.6640625 39.56054688 C-31.4418114 40.36909971 -27.22063437 41.18305169 -23 42 C-24.79153984 47.79322689 -26.88553928 53.18671315 -29.6875 58.5625 C-30.00783203 59.18962891 -30.32816406 59.81675781 -30.65820312 60.46289062 C-31.43318206 61.97814795 -32.21575296 63.48951872 -33 65 C-30.90163649 62.33266336 -29.24690703 59.72035439 -27.7668457 56.66894531 C-27.14523308 55.39546234 -27.14523308 55.39546234 -26.51106262 54.09625244 C-26.07041977 53.18277039 -25.62977692 52.26928833 -25.17578125 51.328125 C-24.47813911 49.89530182 -24.47813911 49.89530182 -23.7664032 48.43353271 C-22.27777698 45.37427645 -20.79493182 42.31226199 -19.3125 39.25 C-17.37256782 35.25449139 -15.43042551 31.26005871 -13.48828125 27.265625 C-13.01955597 26.30047974 -12.55083069 25.33533447 -12.06790161 24.34094238 C-8.10774596 16.19567448 -4.07682962 8.0874172 0 0 Z M-68 36 C-66.33150055 41.05499743 -64.65903605 46.10865901 -62.98291016 51.16113281 C-62.41346262 52.87952259 -61.84509344 54.59827013 -61.27783203 56.31738281 C-60.46150539 58.79066668 -59.64128839 61.2626311 -58.8203125 63.734375 C-58.56814972 64.50118591 -58.31598694 65.26799683 -58.05618286 66.05804443 C-56.90987287 69.49769563 -55.76385319 72.82360048 -54 76 C-42.63287668 71.67159361 -34.00083324 65.23456877 -28.84375 54.03125 C-27.46728766 50.71754437 -26.20695308 47.37946863 -25 44 C-29.43196268 42.41761317 -33.78762942 41.3639223 -38.41015625 40.4921875 C-39.44504433 40.29666794 -39.44504433 40.29666794 -40.50083923 40.09719849 C-41.95011978 39.82459413 -43.39980005 39.55410714 -44.84985352 39.28564453 C-47.0606868 38.87533651 -49.26960743 38.45569037 -51.47851562 38.03515625 C-52.89312392 37.77027067 -54.30783423 37.50592914 -55.72265625 37.2421875 C-57.63703491 36.88423096 -57.63703491 36.88423096 -59.59008789 36.51904297 C-62.473586 36.0801286 -65.09412013 35.88968965 -68 36 Z M-32 69 C-32.33 70.32 -32.66 71.64 -33 73 C-31.68 72.34 -30.36 71.68 -29 71 C-29.99 70.34 -30.98 69.68 -32 69 Z M-35 74 C-35 74.33 -35 74.66 -35 75 C-32.69 75 -30.38 75 -28 75 C-28 74.67 -28 74.34 -28 74 C-30.31 74 -32.62 74 -35 74 Z M-49 75 C-49.33 75.66 -49.66 76.32 -50 77 C-49.01 76.67 -48.02 76.34 -47 76 C-47.66 75.67 -48.32 75.34 -49 75 Z M-31 130 C-31 130.99 -31 131.98 -31 133 C-25.22240116 133.12036664 -19.72040011 132.8320582 -14 132 C-17.59462331 129.74001405 -20.56595675 129.79131913 -24.75 129.875 C-25.92046875 129.89304688 -27.0909375 129.91109375 -28.296875 129.9296875 C-29.18890625 129.95289063 -30.0809375 129.97609375 -31 130 Z M-6.00366211 132.65405273 C-9.71744159 132.93980381 -13.43186174 133.21568274 -17.14648438 133.49023438 C-19.51827229 133.66869864 -21.89001876 133.84771484 -24.26171875 134.02734375 C-25.91949593 134.1508445 -25.91949593 134.1508445 -27.61076355 134.27684021 C-29.15441338 134.39685143 -29.15441338 134.39685143 -30.72924805 134.51928711 C-31.62918991 134.58812607 -32.52913177 134.65696503 -33.4563446 134.72789001 C-36.01643481 135.00175813 -38.48479642 135.4554291 -41 136 C-37.12744498 143.41193657 -32.55547341 150.24674582 -27.8125 157.125 C-26.66535873 158.79878284 -25.51972622 160.47359192 -24.37411499 162.14842224 C-23.25759496 163.78036421 -22.13979495 165.41143023 -21.02197266 167.04248047 C-13.823451 177.57168734 -6.85916184 188.24735257 0 199 C2.4652242 196.77507 3.80995201 194.68146445 5.19921875 191.67578125 C5.59923096 190.82097168 5.99924316 189.96616211 6.41137695 189.08544922 C6.83249756 188.17037598 7.25361816 187.25530273 7.6875 186.3125 C8.58989721 184.38352997 9.49355299 182.45514823 10.3984375 180.52734375 C10.8428418 179.57843262 11.28724609 178.62952148 11.74511719 177.65185547 C13.37965079 174.19771073 15.08406831 170.78286264 16.8125 167.375 C20.31809678 160.43274455 23.71665656 153.43932734 27.09628296 146.43511963 C27.69750669 145.1893056 28.29941238 143.94382044 28.90200806 142.69866943 C29.74923907 140.94724677 30.59343576 139.19435727 31.4375 137.44140625 C31.93121094 136.41732666 32.42492187 135.39324707 32.93359375 134.33813477 C34.06916155 132.27666804 34.06916155 132.27666804 34 131 C20.60460515 130.63887186 7.34567054 131.62525582 -6.00366211 132.65405273 Z M30 144 C28.14361774 147.80619129 26.2923437 151.61481041 24.44580078 155.42578125 C23.81667289 156.72236283 23.18614459 158.01826587 22.55419922 159.31347656 C21.64703828 161.17337011 20.74491197 163.03563141 19.84375 164.8984375 C19.29912109 166.01911621 18.75449219 167.13979492 18.19335938 168.29443359 C16.86547901 170.81214084 16.86547901 170.81214084 17 173 C19.66545164 173.6512183 22.33219056 174.29607161 25 174.9375 C25.74378906 175.11990234 26.48757812 175.30230469 27.25390625 175.49023438 C32.1614276 176.66377209 36.98254788 177.45834324 42 178 C39.97359864 170.12667751 37.52967236 162.47266584 34.8125 154.8125 C34.44447266 153.76513672 34.07644531 152.71777344 33.69726562 151.63867188 C32.80158738 149.09122337 31.90246184 146.54505148 31 144 C30.67 144 30.34 144 30 144 Z " fill="#000000" transform="translate(96,6)"/>
<path d="M0 0 C3.7952131 1.49097658 5.61042731 3.75700849 8 7 C5.33333333 5.66666667 2.66666667 4.33333333 0 3 C0 2.01 0 1.02 0 0 Z " fill="#000000" transform="translate(110,39)"/>
<path d="M0 0 C1 4 1 4 1 4 Z " fill="#000000" transform="translate(109,42)"/>
<path d="M0 0 C0.33 0 0.66 0 1 0 C1 1.65 1 3.3 1 5 C0.67 5 0.34 5 0 5 C0 3.35 0 1.7 0 0 Z " fill="#000000" transform="translate(108,46)"/>
<path d="" fill="#000000" transform="translate(0,0)"/>
<path d="" fill="#000000" transform="translate(0,0)"/>
<path d="" fill="#000000" transform="translate(0,0)"/>
<path d="" fill="#000000" transform="translate(0,0)"/>
<path d="" fill="#000000" transform="translate(0,0)"/>
<path d="M0 0 C1 4 1 4 1 4 Z " fill="#000000" transform="translate(107,51)"/>
<path d="" fill="#000000" transform="translate(0,0)"/>
<path d="M0 0 C0.33 0 0.66 0 1 0 C0.67 2.97 0.34 5.94 0 9 C-0.33 9 -0.66 9 -1 9 C-0.67 6.03 -0.34 3.06 0 0 Z " fill="#000000" transform="translate(106,55)"/>
<path d="" fill="#000000" transform="translate(0,0)"/>
<path d="" fill="#000000" transform="translate(0,0)"/>
<path d="" fill="#000000" transform="translate(0,0)"/>
<path d="M0 0 C1 4 1 4 1 4 Z " fill="#000000" transform="translate(104,64)"/>
<path d="" fill="#000000" transform="translate(0,0)"/>
<path d="" fill="#000000" transform="translate(0,0)"/>
<path d="" fill="#000000" transform="translate(0,0)"/>
<path d="" fill="#000000" transform="translate(0,0)"/>
<path d="M0 0 C0.33 0 0.66 0 1 0 C0.67 2.31 0.34 4.62 0 7 C-1.04449911 3.86650268 -0.93423645 3.01031744 0 0 Z " fill="#000000" transform="translate(103,68)"/>
<path d="" fill="#000000" transform="translate(0,0)"/>
<path d="M0 0 C4.29 0.33 8.58 0.66 13 1 C13.41507813 1.96292969 13.83015625 2.92585938 14.2578125 3.91796875 C20.74959931 18.81365553 27.88270397 33.39634074 35 48 C39.13769075 38.42321074 42.72632501 28.68972399 46.25 18.875 C47.06105721 16.62195628 47.87296332 14.36922525 48.68621826 12.11697388 C49.18734803 10.72854728 49.68712219 9.33963045 50.18536377 7.95016479 C51.88871841 3.22256318 51.88871841 3.22256318 53 1 C55.54941373 0.68758629 58.00361513 0.48696579 60.5625 0.375 C61.27341797 0.33632812 61.98433594 0.29765625 62.71679688 0.2578125 C64.47742425 0.16328217 66.23867728 0.08054183 68 0 C68 0.66 68 1.32 68 2 C65.69 2.66 63.38 3.32 61 4 C61.06264038 4.71774597 61.12528076 5.43549194 61.18981934 6.17498779 C61.78018322 12.94302112 62.36889507 19.71119634 62.95575714 26.47953415 C63.25751764 29.95909235 63.55991398 33.43859283 63.86376953 36.91796875 C64.21316267 40.91910735 64.55977913 44.92048228 64.90625 48.921875 C65.0156189 50.16990906 65.12498779 51.41794312 65.2376709 52.70379639 C65.33777466 53.86469788 65.43787842 55.02559937 65.54101562 56.22167969 C65.62984009 57.24316101 65.71866455 58.26464233 65.81018066 59.31707764 C65.9674588 61.54005999 66 63.7714608 66 66 C67.134375 66.12375 68.26875 66.2475 69.4375 66.375 C70.613125 66.58125 71.78875 66.7875 73 67 C73.33 67.66 73.66 68.32 74 69 C65.42 69 56.84 69 48 69 C48.33 68.34 48.66 67.68 49 67 C51.06640625 66.5859375 51.06640625 66.5859375 53.5625 66.375 C54.38878906 66.30023438 55.21507812 66.22546875 56.06640625 66.1484375 C56.70449219 66.09945312 57.34257812 66.05046875 58 66 C57.45296472 58.68562464 56.90112368 51.37162323 56.34594727 44.05786133 C56.15766621 41.5699891 55.97048363 39.08203348 55.78442383 36.59399414 C55.51672803 33.01686448 55.2450776 29.44005374 54.97265625 25.86328125 C54.89032242 24.75165115 54.80798859 23.64002106 54.72315979 22.4947052 C54.64315231 21.45400375 54.56314484 20.41330231 54.48071289 19.34106445 C54.41187393 18.4283931 54.34303497 17.51572174 54.27210999 16.57539368 C54.00307252 14.02907994 53.50215286 11.51076429 53 9 C47.06 25.5 41.12 42 35 59 C34.01 59 33.02 59 32 59 C30.1133083 55.25177766 28.22952037 51.50211298 26.34814453 47.7512207 C25.7108749 46.48163763 25.07288143 45.21241757 24.43408203 43.94360352 C20.11791973 35.36905431 15.96456833 26.74429014 12 18 C9.6863039 33.95006691 9.37511841 49.91107994 9 66 C9.95712891 66.07347656 9.95712891 66.07347656 10.93359375 66.1484375 C11.75988281 66.22320312 12.58617187 66.29796875 13.4375 66.375 C14.26121094 66.44460937 15.08492187 66.51421875 15.93359375 66.5859375 C16.95646484 66.79089844 16.95646484 66.79089844 18 67 C18.495 67.99 18.495 67.99 19 69 C10.75 69 2.5 69 -6 69 C-5.505 68.01 -5.505 68.01 -5 67 C-2.35139573 66.40644386 0.29197322 66.25790731 3 66 C3.1340625 64.77152344 3.268125 63.54304688 3.40625 62.27734375 C4.18276414 55.28734941 5.04346927 48.30740805 5.89453125 41.32617188 C9.08969976 23.53316524 9.08969976 23.53316524 6.3125 6.375 C3.93483532 3.93307411 2.25987205 2.90552001 -1 2 C-0.67 1.34 -0.34 0.68 0 0 Z " fill="#000000" transform="translate(237,68)"/>
<path d="" fill="#000000" transform="translate(0,0)"/>
<path d="M0 0 C4.2742558 1.5830577 6.26531794 4.50568404 9 8 C4.7257442 6.4169423 2.73468206 3.49431596 0 0 Z " fill="#000000" transform="translate(143,70)"/>
<path d="" fill="#000000" transform="translate(0,0)"/>
<path d="M0 0 C0.33 0 0.66 0 1 0 C0.67 2.97 0.34 5.94 0 9 C-0.33 9 -0.66 9 -1 9 C-0.67 6.03 -0.34 3.06 0 0 Z " fill="#000000" transform="translate(101,77)"/>
<path d="M0 0 C0.66 0.66 1.32 1.32 2 2 C1.55149342 3.81495662 1.09090429 5.62693134 0.625 7.4375 C0.24214844 8.95150391 0.24214844 8.95150391 -0.1484375 10.49609375 C-1 13 -1 13 -3 14 C-2.01 9.38 -1.02 4.76 0 0 Z " fill="#000000" transform="translate(98,78)"/>
<path d="" fill="#000000" transform="translate(0,0)"/>
<path d="M0 0 C0.66 0.66 1.32 1.32 2 2 C1.01 1.67 0.02 1.34 -1 1 C-0.67 0.67 -0.34 0.34 0 0 Z " fill="#000000" transform="translate(153,79)"/>
<path d="M0 0 C3 1 3 1 3 1 Z " fill="#000000" transform="translate(149,81)"/>
<path d="M0 0 C3 1 3 1 3 1 Z " fill="#000000" transform="translate(146,82)"/>
<path d="M0 0 C0.598125 0.20625 1.19625 0.4125 1.8125 0.625 C-0.4975 0.955 -2.8075 1.285 -5.1875 1.625 C-2.1875 -0.375 -2.1875 -0.375 0 0 Z " fill="#000000" transform="translate(144.1875,83.375)"/>
<path d="M0 0 C3 1 3 1 3 1 Z " fill="#000000" transform="translate(136,85)"/>
<path d="" fill="#000000" transform="translate(0,0)"/>
<path d="M0 0 C3 1 3 1 3 1 Z " fill="#000000" transform="translate(133,86)"/>
<path d="M0 0 C0.598125 0.20625 1.19625 0.4125 1.8125 0.625 C-0.4975 0.955 -2.8075 1.285 -5.1875 1.625 C-2.1875 -0.375 -2.1875 -0.375 0 0 Z " fill="#000000" transform="translate(131.1875,87.375)"/>
<path d="M0 0 C0.99 0.495 0.99 0.495 2 1 C1.67 1.66 1.34 2.32 1 3 C0.67 2.01 0.34 1.02 0 0 Z " fill="#000000" transform="translate(74,88)"/>
<path d="M0 0 C1 2 1 2 0.0625 5.125 C-0.288125 6.07375 -0.63875 7.0225 -1 8 C-0.46890625 7.77183594 0.0621875 7.54367188 0.609375 7.30859375 C1.31578125 7.02113281 2.0221875 6.73367187 2.75 6.4375 C3.44609375 6.14746094 4.1421875 5.85742188 4.859375 5.55859375 C7.30012784 4.92168197 8.6403655 5.19751169 11 6 C9.02 6.99 9.02 6.99 7 8 C7.34224609 9.01320313 7.34224609 9.01320313 7.69140625 10.046875 C7.97886719 10.93890625 8.26632813 11.8309375 8.5625 12.75 C8.85253906 13.63171875 9.14257812 14.5134375 9.44140625 15.421875 C10 18 10 18 9 22 C7.68 18.04 6.36 14.08 5 10 C2.03 10.66 -0.94 11.32 -4 12 C-4 10.68 -4 9.36 -4 8 C-6.31 10.31 -8.62 12.62 -11 15 C-11 12 -11 12 -9.1015625 9.84375 C-8.28429687 9.0703125 -7.46703125 8.296875 -6.625 7.5 C-4.04782096 5.04554377 -1.98069878 2.97104817 0 0 Z " fill="#000000" transform="translate(99,89)"/>
<path d="M0 0 C3 1 3 1 3 1 Z " fill="#000000" transform="translate(123,89)"/>
<path d="M0 0 C0.598125 0.20625 1.19625 0.4125 1.8125 0.625 C-0.4975 0.955 -2.8075 1.285 -5.1875 1.625 C-2.1875 -0.375 -2.1875 -0.375 0 0 Z " fill="#000000" transform="translate(121.1875,90.375)"/>
<path d="M0 0 C0.18997559 0.51570557 0.37995117 1.03141113 0.57568359 1.56274414 C4.56728797 12.34481375 8.71896495 23.06776107 13.125 33.6875 C13.51993652 34.68467041 13.91487305 35.68184082 14.32177734 36.70922852 C16.54895981 42.28671611 16.54895981 42.28671611 21.3046875 45.64453125 C22.19414062 45.76183594 23.08359375 45.87914062 24 46 C24 46.33 24 46.66 24 47 C17.73 47 11.46 47 5 47 C5.66 46.34 6.32 45.68 7 45 C8.65 45 10.3 45 12 45 C9.525 39.06 9.525 39.06 7 33 C1.39 33 -4.22 33 -10 33 C-11.32 36.96 -12.64 40.92 -14 45 C-11.69 45.33 -9.38 45.66 -7 46 C-7 46.33 -7 46.66 -7 47 C-12.61 47 -18.22 47 -24 47 C-21 45 -21 45 -17 45 C-16.43732422 43.19789063 -16.43732422 43.19789063 -15.86328125 41.359375 C-14.5064295 37.28003494 -12.91841385 33.34404447 -11.23046875 29.390625 C-10.73482422 28.22402344 -10.23917969 27.05742188 -9.72851562 25.85546875 C-8.69249787 23.4315286 -7.64542184 21.01228797 -6.58789062 18.59765625 C-6.09869141 17.43621094 -5.60949219 16.27476563 -5.10546875 15.078125 C-4.65324951 14.03043945 -4.20103027 12.98275391 -3.73510742 11.90332031 C-2.85493946 8.42708073 -3.45374867 7.15321846 -5 4 C-5 3.01 -5 2.02 -5 1 C-3 0 -3 0 0 0 Z M-2 11 C-3.17314026 13.76825188 -4.33870215 16.53928486 -5.5 19.3125 C-5.83386719 20.09818359 -6.16773438 20.88386719 -6.51171875 21.69335938 C-6.82753906 22.45068359 -7.14335937 23.20800781 -7.46875 23.98828125 C-7.90864258 25.03302612 -7.90864258 25.03302612 -8.35742188 26.09887695 C-9.1601016 28.13921072 -9.1601016 28.13921072 -9 31 C-3.72 31 1.56 31 7 31 C4.36 24.4 1.72 17.8 -1 11 C-1.33 11 -1.66 11 -2 11 Z " fill="#000000" transform="translate(401,90)"/>
<path d="M0 0 C0.99 0.99 1.98 1.98 3 3 C2.67 3.66 2.34 4.32 2 5 C1.34 3.35 0.68 1.7 0 0 Z " fill="#000000" transform="translate(76,91)"/>
<path d="M0 0 C4.03859331 -0.14578115 7.6088011 -0.1276808 10.84570312 2.49609375 C12.61348143 4.59045803 14.1921158 6.74508211 15.75 9 C16.94520761 10.63288928 18.14052298 12.26569969 19.3359375 13.8984375 C19.93631836 14.73858398 20.53669922 15.57873047 21.15527344 16.44433594 C24.13679637 20.57490529 27.26271545 24.59266683 30.375 28.625 C31.46719926 30.05388291 32.55844765 31.48349348 33.6484375 32.9140625 C34.42445313 33.93242188 35.20046875 34.95078125 36 36 C36.02936502 32.18751655 36.04692035 28.37506274 36.0625 24.5625 C36.07506836 22.95858398 36.07506836 22.95858398 36.08789062 21.32226562 C36.10684631 15.12375772 35.82063259 9.1450519 35 3 C33.02 2.34 31.04 1.68 29 1 C32.42232972 -0.14077657 35.08673217 -0.09815117 38.6875 -0.0625 C40.45673828 -0.04896484 40.45673828 -0.04896484 42.26171875 -0.03515625 C43.16535156 -0.02355469 44.06898438 -0.01195313 45 0 C44.67 0.66 44.34 1.32 44 2 C41.9375 2.625 41.9375 2.625 40 3 C39.14045007 8.28271433 38.79917016 13.43021996 38.68359375 18.77734375 C38.66281265 19.58869278 38.64203156 20.40004181 38.62062073 21.23597717 C38.55574357 23.80307339 38.49653078 26.37026337 38.4375 28.9375 C38.39425582 30.68816036 38.35063974 32.43881158 38.30664062 34.18945312 C38.2001265 38.45954171 38.09868886 42.72972368 38 47 C34.91846494 44.00179418 32.10649988 41.0124223 29.546875 37.55859375 C28.93158936 36.73270752 28.31630371 35.90682129 27.68237305 35.0559082 C27.04468994 34.1918335 26.40700684 33.32775879 25.75 32.4375 C25.0897583 31.5508667 24.4295166 30.6642334 23.74926758 29.75073242 C20.85259492 25.85955792 17.96914667 21.95872274 15.08984375 18.0546875 C14.67573242 17.49595947 14.26162109 16.93723145 13.83496094 16.36157227 C12.76498391 14.91710328 11.70062842 13.4684749 10.63671875 12.01953125 C9.15285987 9.90422304 9.15285987 9.90422304 7 9 C7.66 20.55 8.32 32.1 9 44 C10.98 44.33 12.96 44.66 15 45 C15 45.33 15 45.66 15 46 C10.05 46 5.1 46 0 46 C0.66 45.34 1.32 44.68 2 44 C2.99 44 3.98 44 5 44 C5.12381149 38.53743725 5.21443826 33.07569512 5.2746582 27.61206055 C5.29976702 25.75449391 5.33386134 23.89702573 5.37719727 22.03979492 C5.43801124 19.36612642 5.4662452 16.69376635 5.48828125 14.01953125 C5.51408768 13.19226028 5.5398941 12.36498932 5.56648254 11.51264954 C5.56864387 7.04623526 5.42869919 5.51903002 2.46948242 1.9362793 C1.65455322 1.29730713 0.83962402 0.65833496 0 0 Z " fill="#000000" transform="translate(138,91)"/>
<path d="M0 0 C0.33 0 0.66 0 1 0 C1 4.29 1 8.58 1 13 C-1 10 -1 10 -1 7 C-8.0374062 5.89609314 -14.8775349 5.92580766 -22 6 C-22.33 12.27 -22.66 18.54 -23 25 C-13.1 24.505 -13.1 24.505 -3 24 C-2.67 22.35 -2.34 20.7 -2 19 C-1.67 19 -1.34 19 -1 19 C-1 23.95 -1 28.9 -1 34 C-2 32 -3 30 -4 28 C-9.94 27.67 -15.88 27.34 -22 27 C-22 33.27 -22 39.54 -22 46 C-11.28488357 46.39038203 -11.28488357 46.39038203 -1 44 C-0.67 42.35 -0.34 40.7 0 39 C0.33 39 0.66 39 1 39 C1 42.96 1 46.92 1 51 C-0.32 50.67 -1.64 50.34 -3 50 C-5.38833147 49.85139192 -7.77990874 49.75221573 -10.171875 49.68359375 C-10.8542926 49.66281265 -11.53671021 49.64203156 -12.23980713 49.62062073 C-14.40977356 49.55547948 -16.57985624 49.49640596 -18.75 49.4375 C-20.22527221 49.39428103 -21.70053287 49.35066568 -23.17578125 49.30664062 C-26.78373166 49.19983482 -30.39181133 49.09846847 -34 49 C-33.34 48.34 -32.68 47.68 -32 47 C-30.68 47 -29.36 47 -28 47 C-28.33 33.47 -28.66 19.94 -29 6 C-31.475 5.01 -31.475 5.01 -34 4 C-31.12494753 3.04164918 -29.40651244 2.89469365 -26.4296875 2.9375 C-25.5325 2.94523437 -24.6353125 2.95296875 -23.7109375 2.9609375 C-21.84374553 2.9866564 -19.97655785 3.01268986 -18.109375 3.0390625 C-12.31639961 3.08857511 -6.72823002 2.9220491 -1 2 C-0.67 1.34 -0.34 0.68 0 0 Z " fill="#000000" transform="translate(223,88)"/>
<path d="M0 0 C5.61 0 11.22 0 17 0 C16.67 0.66 16.34 1.32 16 2 C14.35 2 12.7 2 11 2 C11 15.86 11 29.72 11 44 C12.98 44.33 14.96 44.66 17 45 C17 45.33 17 45.66 17 46 C11.39 46 5.78 46 0 46 C2 44 2 44 5 43 C5 29.47 5 15.94 5 2 C3.35 2 1.7 2 0 2 C0 1.34 0 0.68 0 0 Z " fill="#000000" transform="translate(319,91)"/>
<path d="M0 0 C1.18224668 3.54674003 0.89329634 5.97522995 0.5625 9.6875 C0.46066406 10.86699219 0.35882813 12.04648438 0.25390625 13.26171875 C0.17011719 14.16535156 0.08632813 15.06898437 0 16 C-0.66 15.67 -1.32 15.34 -2 15 C-2.3403125 13.329375 -2.3403125 13.329375 -2.6875 11.625 C-3.66252356 7.76237518 -3.66252356 7.76237518 -7.125 6.0625 C-12.16685835 4.37137668 -16.91122681 4.09183774 -21.875 6.25 C-24.17596269 8.14491045 -25.18252571 9.13884 -26 12 C-26.24677006 15.10293293 -26.24677006 15.10293293 -25 18 C-19.65778501 21.35441407 -13.45510911 21.95156853 -7.3046875 22.9609375 C-3.29631866 24.22125205 -1.5584449 25.69019024 1 29 C1.59375 31.5703125 1.59375 31.5703125 1.5 34.125 C1.4896875 34.97320312 1.479375 35.82140625 1.46875 36.6953125 C0.92369885 39.37514733 0.08986233 40.29920778 -2 42 C-1.94199219 41.38511719 -1.88398438 40.77023438 -1.82421875 40.13671875 C-1.75654297 38.92435547 -1.75654297 38.92435547 -1.6875 37.6875 C-1.62949219 36.88699219 -1.57148438 36.08648437 -1.51171875 35.26171875 C-1.79669459 32.79247798 -1.79669459 32.79247798 -4.1484375 31.26953125 C-7.16177528 29.92797676 -9.67164748 29.40350301 -12.9375 29 C-18.44672722 28.17429273 -22.82014068 27.25502688 -26.8125 23.125 C-28.65421735 19.82929526 -29.32038926 17.59622508 -28.5625 13.8203125 C-27.10451382 8.76706494 -25.63387077 5.85161278 -21 3 C-15.96200818 0.48100409 -8.50704417 1.59812156 -3.25 3 C-2.13625 3.495 -2.13625 3.495 -1 4 C-0.67 2.68 -0.34 1.36 0 0 Z " fill="#000000" transform="translate(374,89)"/>
<path d="M0 0 C0 3 0 3 -1.8984375 5.26171875 C-2.71570313 6.06222656 -3.53296875 6.86273438 -4.375 7.6875 C-5.18710938 8.49574219 -5.99921875 9.30398437 -6.8359375 10.13671875 C-9 12 -9 12 -11 12 C-11 11.34 -11 10.68 -11 10 C-9.35546875 8.37890625 -9.35546875 8.37890625 -7.1875 6.5625 C-4.68897282 4.45536324 -2.2757944 2.34758602 0 0 Z " fill="#000000" transform="translate(94,92)"/>
<path d="M0 0 C3 1 3 1 3 1 Z " fill="#000000" transform="translate(113,92)"/>
<path d="M0 0 C3 1 3 1 3 1 Z " fill="#000000" transform="translate(110,93)"/>
<path d="M0 0 C3.34254774 0.56065953 4.69986117 1.39228975 6.7265625 4.08984375 C7.438125 5.01893555 7.438125 5.01893555 8.1640625 5.96679688 C8.88722656 6.94229492 8.88722656 6.94229492 9.625 7.9375 C10.59539944 9.2181719 11.56671567 10.49814977 12.5390625 11.77734375 C13.17642334 12.63187134 13.17642334 12.63187134 13.82666016 13.50366211 C15.06678736 15.14686186 15.06678736 15.14686186 17 17 C17.125 19.625 17.125 19.625 17 22 C13.68060406 18.8633231 10.94517225 15.41904118 8.25 11.75 C6.14625 8.90375 6.14625 8.90375 4 6 C4 11.28 4 16.56 4 22 C2.68 21.67 1.36 21.34 0 21 C0.66 21 1.32 21 2 21 C1.86142159 17.87463363 1.71290431 14.74981783 1.5625 11.625 C1.52318359 10.73554687 1.48386719 9.84609375 1.44335938 8.9296875 C1.38051758 7.65351562 1.38051758 7.65351562 1.31640625 6.3515625 C1.27974854 5.56604004 1.24309082 4.78051758 1.20532227 3.97119141 C1.109109 1.92476504 1.109109 1.92476504 0 0 Z " fill="#000000" transform="translate(434,94)"/>
<path d="M0 0 C2.31 0 4.62 0 7 0 C6.01 0.495 6.01 0.495 5 1 C4.34786708 3.02463255 4.34786708 3.02463255 4 5 C3.896875 4.360625 3.79375 3.72125 3.6875 3.0625 C3.460625 2.381875 3.23375 1.70125 3 1 C2.01 0.67 1.02 0.34 0 0 Z " fill="#000000" transform="translate(447,94)"/>
<path d="M0 0 C3.63 0 7.26 0 11 0 C11 0.33 11 0.66 11 1 C9.02 1 7.04 1 5 1 C5 7.6 5 14.2 5 21 C5.66 21.33 6.32 21.66 7 22 C4.69 22 2.38 22 0 22 C0.66 21.67 1.32 21.34 2 21 C2 14.4 2 7.8 2 1 C1.34 0.67 0.68 0.34 0 0 Z " fill="#000000" transform="translate(458,94)"/>
<path d="M0 0 C7.75 -0.125 7.75 -0.125 10 1 C10 2.65 10 4.3 10 6 C9.46375 5.360625 8.9275 4.72125 8.375 4.0625 C5.55632807 1.61470596 3.66139268 1.33285388 0 1 C0 0.67 0 0.34 0 0 Z " fill="#000000" transform="translate(484,94)"/>
<path d="M0 0 C3.875 0.875 3.875 0.875 5 2 C5.04080783 3.99958364 5.04254356 6.00045254 5 8 C3.02 8.99 3.02 8.99 1 10 C1.20625 8.906875 1.4125 7.81375 1.625 6.6875 C2.40346525 2.9161599 2.40346525 2.9161599 0 0 Z " fill="#000000" transform="translate(469,95)"/>
<path d="M0 0 C0.99 0.495 0.99 0.495 2 1 C1.67 1.66 1.34 2.32 1 3 C0.67 2.01 0.34 1.02 0 0 Z " fill="#000000" transform="translate(79,96)"/>
<path d="" fill="#000000" transform="translate(0,0)"/>
<path d="" fill="#000000" transform="translate(0,0)"/>
<path d="M0 0 C0.99 0.495 0.99 0.495 2 1 C1.67 1.66 1.34 2.32 1 3 C0.67 2.01 0.34 1.02 0 0 Z " fill="#000000" transform="translate(81,99)"/>
<path d="M0 0 C0.33 0 0.66 0 1 0 C1.04898437 0.60328125 1.09796875 1.2065625 1.1484375 1.828125 C1.22320312 2.62734375 1.29796875 3.4265625 1.375 4.25 C1.44460938 5.03890625 1.51421875 5.8278125 1.5859375 6.640625 C2.02583767 9.14722596 2.64824483 10.84822646 4 13 C7.18762365 15.12508244 9.26512223 15.5020163 13 16 C13 16.33 13 16.66 13 17 C5.76813075 17.49029622 5.76813075 17.49029622 2.0625 15.125 C-0.8394406 12.13512181 -1.13816672 10.55535031 -1.125 6.5 C-1.12757813 5.7059375 -1.13015625 4.911875 -1.1328125 4.09375 C-1 2 -1 2 0 0 Z " fill="#000000" transform="translate(478,99)"/>
<path d="" fill="#000000" transform="translate(0,0)"/>
<path d="" fill="#000000" transform="translate(0,0)"/>
<path d="M0 0 C3 1 3 1 3 1 Z " fill="#000000" transform="translate(467,105)"/>
<path d="" fill="#000000" transform="translate(0,0)"/>
<path d="" fill="#000000" transform="translate(0,0)"/>
<path d="M0 0 C2.02744797 3.04117196 3.06650449 5.48143999 4 9 C3.55078125 11.19140625 3.55078125 11.19140625 3 13 C2.49242138 11.58603098 1.99425075 10.16868271 1.5 8.75 C1.08234375 7.56664063 1.08234375 7.56664063 0.65625 6.359375 C0 4 0 4 0 0 Z " fill="#000000" transform="translate(109,111)"/>
<path d="M0 0 C2 1 2 1 2 1 Z " fill="#000000" transform="translate(491,114)"/>
<path d="" fill="#000000" transform="translate(0,0)"/>
<path d="" fill="#000000" transform="translate(0,0)"/>
<path d="M0 0 C2 2 2 2 2.1875 5.3125 C3.02312134 9.10493531 3.19679145 9.6511583 6.0625 11.875 C11.76125645 15.425045 17.5085523 15.46057573 24 14 C21.78770401 16.54414039 20.34873329 17.54746847 17 18 C11.45489623 18.27271002 7.25574535 17.75191512 2 16 C1.34 16.99 0.68 17.98 0 19 C0 12.73 0 6.46 0 0 Z " fill="#000000" transform="translate(345,120)"/>
<path d="" fill="#000000" transform="translate(0,0)"/>
<path d="" fill="#000000" transform="translate(0,0)"/>
<path d="" fill="#000000" transform="translate(0,0)"/>
<path d="M0 0 C0 0.99 0 1.98 0 3 C-0.66 2.67 -1.32 2.34 -2 2 C-1.34 1.34 -0.68 0.68 0 0 Z " fill="#000000" transform="translate(371,131)"/>
<path d="M0 0 C0.95345674 -0.00199105 1.90691348 -0.0039821 2.88926286 -0.00603348 C3.93886227 -0.00312064 4.98846168 -0.0002078 6.06986713 0.00279331 C7.18315665 0.00193889 8.29644617 0.00108446 9.44347173 0.00020415 C13.19308322 -0.00144971 16.94265048 0.00406922 20.69225788 0.00952244 C23.3724703 0.00980436 26.05267996 0.00969057 28.73289204 0.00907993 C34.51307036 0.0085551 40.29323741 0.01169769 46.0734129 0.01731777 C54.43061799 0.02543823 62.78781763 0.02804855 71.14502624 0.02930576 C84.70341644 0.03149542 98.26180063 0.03815318 111.82018757 0.04760838 C124.99238778 0.05678471 138.16458637 0.06386447 151.33678913 0.06811619 C152.14846376 0.06837891 152.96013838 0.06864164 153.79640921 0.06891232 C157.86826468 0.07021734 161.94012016 0.07148105 166.01197565 0.07272422 C199.80229869 0.08309416 233.59261446 0.10071014 267.38293171 0.12304783 C267.38293171 1.11304783 267.38293171 2.10304783 267.38293171 3.12304783 C269.03293171 3.12304783 270.68293171 3.12304783 272.38293171 3.12304783 C272.71293171 5.76304783 273.04293171 8.40304783 273.38293171 11.12304783 C180.65293171 11.12304783 87.92293171 11.12304783 -7.61706829 11.12304783 C-7.61706829 7.82304783 -7.61706829 4.52304783 -7.61706829 1.12304783 C-4.7482302 0.16676846 -2.97640859 -0.00136972 0 0 Z M269.38293171 4.12304783 C268.72293171 4.78304783 268.06293171 5.44304783 267.38293171 6.12304783 C268.37293171 6.12304783 269.36293171 6.12304783 270.38293171 6.12304783 C270.05293171 5.46304783 269.72293171 4.80304783 269.38293171 4.12304783 Z " fill="#000000" transform="translate(148.61706829071045,145.87695217132568)"/>
</svg>
